# xmcd CD database file generated by OrangeCD 6.5
#
# Track frame offsets:
#	150
#	13208
#	25453
#	38147
#	47436
#	60119
#	69691
#	81237
#	94011
#	112425
#	123696
#	139662
#	150485
#	163997
#	173972
#	187723
#	201069
#	210754
#	222245
#	233351
#
# Disc length: 3258 seconds
#
# Revision: 3
# Processed by: cddbd v1.5.2PL0 Copyright (c) Steve Scherf et al.
# Submitted via: OrangeCD 6.5
#
DISCID=0e0cb814
DTITLE=Various Artist - Country Giants
DYEAR=1997
DGENRE=Country
TTITLE0=Don Williams - Where do we go from here
TTITLE1=Anne Murray - All the time
TTITLE2=Johnny Cash - These Hands
TTITLE3=Charley Pride - Kiss an angel good morning
TTITLE4=Kenny Rogers - Reuben James
TTITLE5=Johnny Cash - A boy named Sue
TTITLE6=Loretta Lynn - You're looking at country
TTITLE7=George Jones - Almost persuaded
TTITLE8=Willy Nelson - Seven spanish angels
TTITLE9=Wanda Jackson - It's only make believe
TTITLE10=Anne Murray - Both sides now
TTITLE11=Brenda Lee - I'll fly away
TTITLE12=Kenny Rogers - Ruby don't take your love to town
TTITLE13=Merle Haggard - Mama tried
TTITLE14=Bobby Bare - The Jogger
TTITLE15=Billy Jo Spears - Fever
TTITLE16=Charly Pride - Chrystal chandeliers
TTITLE17=Loretta Lynn - Me and Bobby McGee
TTITLE18=Willy Nelson - To all the girls I've loved before
TTITLE19=Jim Reeves - Anne Marie
EXTD=
EXTT0=
EXTT1=
EXTT2=
EXTT3=
EXTT4=
EXTT5=
EXTT6=
EXTT7=
EXTT8=
EXTT9=
EXTT10=
EXTT11=
EXTT12=
EXTT13=
EXTT14=
EXTT15=
EXTT16=
EXTT17=
EXTT18=
EXTT19=
PLAYORDER=
